<?xml version="1.0" encoding="UTF-8"?>
<svg viewBox="0 0 1024 1024" version="1.1" xmlns="http://www.w3.org/2000/svg" xmlns:xlink="http://www.w3.org/1999/xlink">
<style>
svg {
  width: 1.2em;
  height: 1.2em;
  vertical-align: bottom;
  line-height: 0;
  fill: currentColor;
  overflow: hidden;
}
</style>
<path d="M512 64.512c-246.784 0-447.488 200.704-447.488 447.488s200.704 447.488 447.488 447.488 447.488-200.704 447.488-447.488-200.704-447.488-447.488-447.488z m216.064 331.264L471.04 655.36h-0.512v0.512c-2.048 2.048-4.608 3.072-7.168 4.608-1.024 0.512-2.048 1.536-3.584 2.048-4.096 1.536-7.68 2.56-11.776 2.56-4.096 0-8.192-1.024-12.288-2.56-1.024-0.512-2.56-1.536-3.584-2.56-2.56-1.536-4.608-2.56-6.656-4.608v-0.512H424.96l-126.464-130.048c-12.288-12.8-12.288-33.28 0.512-45.568 12.8-12.288 32.768-12.288 45.568 0.512l103.424 106.496 233.984-236.544c12.288-12.8 32.768-12.8 45.568-0.512 12.8 13.312 12.8 33.792 0.512 46.592z">
</path>
</svg>
