<?xml version="1.0" encoding="UTF-8"?>
<svg viewBox="0 0 1024 1024" version="1.1" xmlns="http://www.w3.org/2000/svg" xmlns:xlink="http://www.w3.org/1999/xlink">
<style>
svg {
  width: 1.2em;
  height: 1.2em;
  vertical-align: bottom;
  line-height: 0;
  fill: currentColor;
  overflow: hidden;
}
</style>
<path d="M544.83 557.536l374.19 0.973c17.694 0.046 32.039-14.21 32.085-31.904 0.045-17.74-14.21-32.04-31.904-32.086l-374.258-0.995 0.566-372.561c0.022-17.627-14.256-31.995-31.95-32.041-17.672-0.022-32.018 14.278-32.064 31.973l-0.564 372.47-373.986-0.996c-17.695-0.045-32.04 14.21-32.086 31.904-0.022 8.849 3.552 16.903 9.368 22.719 5.769 5.77 13.734 9.345 22.537 9.367l374.076 0.996-0.565 375.955c-0.023 8.846 3.553 16.856 9.368 22.671 5.793 5.793 13.78 9.346 22.583 9.369 17.672 0.022 31.995-14.256 32.04-31.95L544.83 557.536 544.83 557.536z">
</path>
</svg>
