<?xml version="1.0" encoding="UTF-8"?>
<svg viewBox="0 0 1024 1024" version="1.1" xmlns="http://www.w3.org/2000/svg" xmlns:xlink="http://www.w3.org/1999/xlink">
<style>
svg {
  width: 1.2em;
  height: 1.2em;
  vertical-align: bottom;
  line-height: 0;
  fill: currentColor;
  overflow: hidden;
}
</style>
<path d="M822.784 502.784c-12.288 12.288-32.768 12.288-45.056 0l-233.472-233.472v562.688c0 17.92-14.336 32.256-32.256 32.256s-32.256-14.336-32.256-32.256V269.312L246.784 502.784c-12.288 12.288-32.768 12.288-45.056 0-12.288-12.288-12.288-32.768 0-45.056l288.256-287.744c3.072-3.072 6.656-5.12 10.24-7.168 4.096-1.536 8.192-2.56 12.288-2.56 4.096 0 8.192 1.024 12.288 2.56 4.096 1.536 7.68 4.096 10.24 7.168l288.256 287.744c11.776 12.288 11.776 32.256-0.512 45.056z">
</path>
</svg>
