<?xml version="1.0" encoding="UTF-8"?>
<svg viewBox="0 0 1024 1024" version="1.1" xmlns="http://www.w3.org/2000/svg" xmlns:xlink="http://www.w3.org/1999/xlink">
<style>
svg {
  width: 1.2em;
  height: 1.2em;
  vertical-align: bottom;
  line-height: 0;
  fill: currentColor;
  overflow: hidden;
}
</style>
<path d="M529.61 580.57c-0.87 0.45-1.59 1.18-2.49 1.57-16.01 7.7-35.6 5.18-48.48-8.45l-292.26-309c-15.93-16.85-15.17-43.41 1.65-59.37 16.85-15.93 43.41-15.2 59.37 1.65l262.27 277.25 266.17-276.16c16.09-16.68 42.66-17.19 59.37-1.09 8.56 8.23 12.85 19.23 12.85 30.23 0 10.5-3.92 20.99-11.76 29.14l-295.1 306.2c-0.59 0.59-1.4 0.81-2.01 1.4-0.42 0.45-0.73 0.92-1.18 1.37-2.5 2.38-5.55 3.63-8.4 5.26z">
</path>
<path d="M529.61 889.72c-0.87 0.45-1.59 1.18-2.49 1.57-16.01 7.7-35.6 5.18-48.48-8.45l-292.26-309c-15.93-16.85-15.17-43.41 1.65-59.37 16.85-15.93 43.41-15.2 59.37 1.65l262.27 277.25 266.17-276.15c16.09-16.68 42.66-17.19 59.37-1.09 8.56 8.23 12.85 19.23 12.85 30.23 0 10.5-3.92 20.99-11.76 29.14L541.2 881.69c-0.59 0.59-1.4 0.81-2.01 1.4-0.42 0.45-0.73 0.92-1.18 1.37-2.5 2.38-5.55 3.64-8.4 5.26z">
</path>
</svg>
