<?xml version="1.0" encoding="UTF-8"?>
<svg viewBox="0 0 1024 1024" version="1.1" xmlns="http://www.w3.org/2000/svg" xmlns:xlink="http://www.w3.org/1999/xlink">
<style>
svg {
  width: 1.2em;
  height: 1.2em;
  vertical-align: bottom;
  line-height: 0;
  fill: currentColor;
  overflow: hidden;
}
</style>
<path d="M96 64h832a32 32 0 0 1 32 32v832a32 32 0 0 1-32 32H96a32 32 0 0 1-32-32V96a32 32 0 0 1 32-32z m648.64 244.032l-310.368 331.296-157.696-132.48a32 32 0 1 0-41.152 48.992l180.896 152a32 32 0 0 0 43.936-2.624L791.36 351.776a32 32 0 1 0-46.72-43.744z">
</path>
</svg>
